<?xml version="1.0" standalone="no"?>
<!DOCTYPE svg PUBLIC "-//W3C//DTD SVG 1.1//EN"
  "http://www.w3.org/Graphics/SVG/1.1/DTD/svg11.dtd">
<svg width="192.00001525878906mm" height="149.03999710083005mm" viewBox="156.72999572753906 -96.26999664306639 192.00001525878906 149.03999710083005" xmlns="http://www.w3.org/2000/svg" version="1.1">
	<title>svgOutput</title>
	<desc>made with tinkercad</desc>
<path d="M 347.6830139160156 -92.97299957275389 L 347.7300109863281 -92.26999664306639 L 347.7300109863281 48.77000045776366 L 347.7007141113281 49.208000183105455 L 347.6830139160156 49.47299957275389 L 347.5429992675781 50.08200073242186 L 347.3080139160156 50.59799957275389 L 346.9800109863281 51.02000045776366 L 346.5580139160156 51.34799957275389 L 346.0429992675781 51.58200073242186 L 345.4330139160156 51.72299957275389 L 344.7300109863281 51.77000045776366 L 341.2279968261719 51.77000045776366 L 284.77801513671875 51.77000045776366 L 264.0320129394531 51.77000045776366 L 262.1440124511719 51.77000045776366 L 261.2820129394531 51.77000045776366 L 261.2820129394531 49.208000183105455 L 261.2820129394531 48.15299987792967 L 261.2349853515625 47.450000762939446 L 261.093994140625 46.84099960327148 L 260.8599853515625 46.325000762939446 L 260.5320129394531 45.90299987792968 L 260.1099853515625 45.575000762939446 L 259.593994140625 45.34099960327148 L 258.9849853515625 45.200000762939446 L 258.2820129394531 45.15299987792968 L 229.37600708007812 45.15299987792968 L 206.5279998779297 45.15299987792968 L 205.8249969482422 45.200000762939446 L 205.21499633789062 45.34099960327148 L 204.6999969482422 45.575000762939446 L 204.2779998779297 45.90299987792968 L 203.9499969482422 46.325000762939446 L 203.71499633789062 46.84099960327148 L 203.57400512695312 47.450000762939446 L 203.52699279785156 48.15299987792967 L 203.52699279785156 49.208000183105455 L 203.52699279785156 50.55300140380858 L 203.52699279785156 51.77000045776366 L 196.427001953125 51.77000045776366 L 160.72999572753906 51.77000045776366 L 160.02699279785156 51.72299957275389 L 159.41799926757812 51.58200073242186 L 158.90199279785156 51.34799957275389 L 158.7779998779297 51.251621246337876 L 158.47999572753906 51.02000045776366 L 158.15199279785156 50.59799957275389 L 157.91799926757812 50.08200073242186 L 157.77699279785156 49.47299957275389 L 157.72999572753906 48.77000045776366 L 157.72999572753906 -92.26999664306639 L 157.77699279785156 -92.97299957275389 L 157.91799926757812 -93.58300018310545 L 158.15199279785156 -94.09799957275389 L 158.47999572753906 -94.51999664306639 L 158.7779998779297 -94.75161743164061 L 158.90199279785156 -94.84799957275389 L 159.41799926757812 -95.08300018310545 L 160.02699279785156 -95.22299957275389 L 160.72999572753906 -95.26999664306639 L 163.88299560546875 -95.26999664306639 L 262.1440124511719 -95.26999664306639 L 264.0320129394531 -95.26999664306639 L 268.8320007324219 -95.26999664306639 L 284.77801513671875 -95.26999664306639 L 324.7829895019531 -95.26999664306639 L 341.2279968261719 -95.26999664306639 L 344.7300109863281 -95.26999664306639 L 345.4330139160156 -95.22299957275389 L 346.0429992675781 -95.08300018310545 L 346.3330078125 -94.95066833496092 L 346.5580139160156 -94.84799957275389 L 346.9800109863281 -94.51999664306639 L 347.3080139160156 -94.09799957275389 L 347.5429992675781 -93.58300018310545 L 347.6830139160156 -92.97299957275389 M 343.5299987792969 49.194999694824205 L 343.7799987792969 49.208000183105455 L 344.0299987792969 49.194999694824205 L 344.27801513671875 49.15800094604491 L 344.30230712890625 49.15200042724608 L 344.52099609375 49.09799957275389 L 344.7569885253906 49.013000488281236 L 344.9830017089844 48.905998229980455 L 345.197998046875 48.77700042724608 L 345.39898681640625 48.62799835205077 L 345.5849914550781 48.45999908447264 L 345.75299072265625 48.27399826049803 L 345.9020080566406 48.07300186157225 L 346.031005859375 47.85800170898437 L 346.13800048828125 47.631999969482415 L 346.2229919433594 47.39599990844726 L 346.2829895019531 47.15299987792968 L 346.2903137207031 47.10400009155273 L 346.32000732421875 46.90499877929687 L 346.3330078125 46.65499877929687 L 346.32000732421875 46.40499877929687 L 346.2829895019531 46.15700149536132 L 346.2229919433594 45.91400146484374 L 346.13800048828125 45.67800140380859 L 346.031005859375 45.45199966430663 L 345.9020080566406 45.23699951171874 L 345.767822265625 45.05599975585937 L 345.75299072265625 45.035999298095696 L 345.5849914550781 44.84999847412109 L 345.39898681640625 44.68199920654296 L 345.197998046875 44.533000946044915 L 344.9830017089844 44.403999328613274 L 344.7569885253906 44.29700088500976 L 344.52099609375 44.2120018005371 L 344.27801513671875 44.15200042724609 L 344.0639953613281 44.120071411132805 L 344.0299987792969 44.11500167846679 L 343.7799987792969 44.10300064086913 L 343.5299987792969 44.11500167846679 L 343.2820129394531 44.15200042724609 L 343.03900146484375 44.2120018005371 L 342.8030090332031 44.29700088500976 L 342.5769958496094 44.403999328613274 L 342.36199951171875 44.533000946044915 L 342.1610107421875 44.68199920654296 L 341.9750061035156 44.84999847412109 L 341.8070068359375 45.035999298095696 L 341.79217529296875 45.05599975585937 L 341.6579895019531 45.23699951171874 L 341.52899169921875 45.45199966430663 L 341.4219970703125 45.67800140380859 L 341.3370056152344 45.91400146484374 L 341.2770080566406 46.15700149536132 L 341.239990234375 46.40499877929687 L 341.2279968261719 46.65499877929687 L 341.239990234375 46.90499877929687 L 341.2696838378906 47.10400009155273 L 341.2770080566406 47.15299987792968 L 341.3370056152344 47.39599990844726 L 341.4219970703125 47.631999969482415 L 341.52899169921875 47.85800170898437 L 341.6579895019531 48.07300186157225 L 341.8070068359375 48.27399826049803 L 341.9750061035156 48.45999908447264 L 342.1610107421875 48.62799835205077 L 342.36199951171875 48.77700042724608 L 342.5769958496094 48.905998229980455 L 342.8030090332031 49.013000488281236 L 343.03900146484375 49.09799957275389 L 343.2576904296875 49.15200042724608 L 343.2820129394531 49.15800094604491 L 343.5299987792969 49.194999694824205 M 341.239990234375 -90.09500122070311 L 341.2279968261719 -89.84500122070311 L 341.239990234375 -89.59500122070311 L 341.2770080566406 -89.3470001220703 L 341.3370056152344 -89.10399627685545 L 341.4219970703125 -88.8679962158203 L 341.52899169921875 -88.64199829101561 L 341.6579895019531 -88.42700195312499 L 341.8070068359375 -88.22599792480467 L 341.9750061035156 -88.04000091552733 L 342.0159912109375 -88.00296783447264 L 342.1610107421875 -87.8720016479492 L 342.36199951171875 -87.72299957275389 L 342.5769958496094 -87.59400177001952 L 342.8030090332031 -87.48699951171874 L 343.03900146484375 -87.40200042724608 L 343.2820129394531 -87.34200286865233 L 343.5299987792969 -87.30500030517577 L 343.7799987792969 -87.29199981689452 L 344.0299987792969 -87.30500030517577 L 344.0639953613281 -87.31007385253905 L 344.27801513671875 -87.34200286865233 L 344.52099609375 -87.40200042724608 L 344.7569885253906 -87.48699951171874 L 344.9830017089844 -87.59400177001952 L 345.197998046875 -87.72299957275389 L 345.39898681640625 -87.8720016479492 L 345.5849914550781 -88.04000091552733 L 345.606689453125 -88.06400299072264 L 345.75299072265625 -88.22599792480467 L 345.9020080566406 -88.42700195312499 L 346.031005859375 -88.64199829101561 L 346.13800048828125 -88.8679962158203 L 346.2229919433594 -89.10399627685545 L 346.2829895019531 -89.3470001220703 L 346.32000732421875 -89.59500122070311 L 346.3330078125 -89.84500122070311 L 346.32000732421875 -90.09500122070311 L 346.3174743652344 -90.11199951171874 L 346.2829895019531 -90.34300231933592 L 346.2229919433594 -90.58599853515624 L 346.13800048828125 -90.82199859619139 L 346.031005859375 -91.04799652099608 L 345.9020080566406 -91.26300048828124 L 345.75299072265625 -91.46399688720702 L 345.5849914550781 -91.65000152587889 L 345.39898681640625 -91.81800079345702 L 345.197998046875 -91.96700286865233 L 344.9830017089844 -92.0960006713867 L 344.7569885253906 -92.20300292968749 L 344.52099609375 -92.28800201416014 L 344.27801513671875 -92.34799957275389 L 344.0639953613281 -92.37992858886717 L 344.0299987792969 -92.38500213623045 L 343.7799987792969 -92.39700317382811 L 343.5299987792969 -92.38500213623045 L 343.2820129394531 -92.34799957275389 L 343.03900146484375 -92.28800201416014 L 342.8030090332031 -92.20300292968749 L 342.5769958496094 -92.0960006713867 L 342.36199951171875 -91.96700286865233 L 342.1610107421875 -91.81800079345702 L 342.0159912109375 -91.68703460693358 L 341.9750061035156 -91.65000152587889 L 341.8070068359375 -91.46399688720702 L 341.6579895019531 -91.26300048828124 L 341.52899169921875 -91.04799652099608 L 341.4219970703125 -90.82199859619139 L 341.3370056152344 -90.58599853515624 L 341.2770080566406 -90.34300231933592 L 341.2425231933594 -90.11199951171874 L 341.239990234375 -90.09500122070311 M 344.0299987792969 -48.55500030517577 L 344.0639953613281 -48.56007385253905 L 344.27801513671875 -48.591999053955064 L 344.52099609375 -48.65200042724608 L 344.7569885253906 -48.736999511718736 L 344.9830017089844 -48.84400177001952 L 345.197998046875 -48.97299957275389 L 345.39898681640625 -49.122001647949205 L 345.4322204589844 -49.15200042724608 L 345.5849914550781 -49.29000091552733 L 345.75299072265625 -49.47600173950194 L 345.9020080566406 -49.67699813842772 L 346.031005859375 -49.89199829101561 L 346.13800048828125 -50.118000030517564 L 346.2229919433594 -50.35400009155272 L 346.2829895019531 -50.5970001220703 L 346.32000732421875 -50.84500122070311 L 346.3330078125 -51.09500122070311 L 346.3275451660156 -51.20000076293944 L 346.32000732421875 -51.34500122070311 L 346.2829895019531 -51.59299850463866 L 346.2229919433594 -51.835998535156236 L 346.13800048828125 -52.07199859619139 L 346.031005859375 -52.298000335693345 L 345.9020080566406 -52.513000488281236 L 345.75299072265625 -52.71400070190428 L 345.5849914550781 -52.90000152587889 L 345.39898681640625 -53.06800079345702 L 345.197998046875 -53.216999053955064 L 345.1463317871094 -53.2480010986328 L 344.9830017089844 -53.346000671386705 L 344.7569885253906 -53.45299911499022 L 344.52099609375 -53.537998199462876 L 344.27801513671875 -53.59799957275389 L 344.0639953613281 -53.62992858886717 L 344.0299987792969 -53.63499832153319 L 343.7799987792969 -53.646999359130845 L 343.5299987792969 -53.63499832153319 L 343.2820129394531 -53.59799957275389 L 343.03900146484375 -53.537998199462876 L 342.8030090332031 -53.45299911499022 L 342.5769958496094 -53.346000671386705 L 342.4136657714844 -53.2480010986328 L 342.36199951171875 -53.216999053955064 L 342.1610107421875 -53.06800079345702 L 341.9750061035156 -52.90000152587889 L 341.8070068359375 -52.71400070190428 L 341.6579895019531 -52.513000488281236 L 341.52899169921875 -52.298000335693345 L 341.4219970703125 -52.07199859619139 L 341.3370056152344 -51.835998535156236 L 341.2770080566406 -51.59299850463866 L 341.239990234375 -51.34500122070311 L 341.2330322265625 -51.20000076293944 L 341.2279968261719 -51.09500122070311 L 341.239990234375 -50.84500122070311 L 341.2770080566406 -50.5970001220703 L 341.3370056152344 -50.35400009155272 L 341.4219970703125 -50.118000030517564 L 341.52899169921875 -49.89199829101561 L 341.6579895019531 -49.67699813842772 L 341.8070068359375 -49.47600173950194 L 341.9750061035156 -49.29000091552733 L 342.1277770996094 -49.15200042724608 L 342.1610107421875 -49.122001647949205 L 342.36199951171875 -48.97299957275389 L 342.5769958496094 -48.84400177001952 L 342.8030090332031 -48.736999511718736 L 343.03900146484375 -48.65200042724608 L 343.2820129394531 -48.591999053955064 L 343.5299987792969 -48.55500030517577 L 343.7799987792969 -48.54199981689452 L 344.0299987792969 -48.55500030517577 M 286.1839904785156 45.30899810791015 L 285.7550048828125 45.50500106811523 L 285.40301513671875 45.77799987792968 L 285.1300048828125 46.13100051879882 L 284.9339904785156 46.56000137329101 L 284.77801513671875 47.65499877929687 L 284.9339904785156 48.749999999999986 L 285.1300048828125 49.18000030517577 L 285.40301513671875 49.532001495361314 L 285.7550048828125 49.80500030517577 L 286.1839904785156 50.00099945068358 L 287.27801513671875 50.15800094604491 L 294.9119873046875 50.15800094604491 L 322.2820129394531 50.15800094604491 L 323.3760070800781 50.00099945068358 L 323.80499267578125 49.80500030517577 L 324.1570129394531 49.532001495361314 L 324.42999267578125 49.18000030517577 L 324.62701416015625 48.749999999999986 L 324.7829895019531 47.65499877929687 L 324.62701416015625 46.56000137329101 L 324.42999267578125 46.13100051879882 L 324.1570129394531 45.77799987792968 L 323.80499267578125 45.50500106811523 L 323.3760070800781 45.30899810791015 L 322.2820129394531 45.15299987792968 L 294.9119873046875 45.15299987792968 L 287.27801513671875 45.15299987792968 L 286.1839904785156 45.30899810791015 M 266.6679992675781 50.54100036621092 L 266.9010009765625 50.50699996948241 L 267.1289978027344 50.449001312255845 L 267.35101318359375 50.36999893188475 L 267.5639953613281 50.269001007080064 L 267.7659912109375 50.14799880981444 L 267.9549865722656 50.007999420166 L 268.1300048828125 49.848999023437486 L 268.2879943847656 49.67399978637694 L 268.4280090332031 49.48500061035155 L 268.54901123046875 49.28300094604491 L 268.6111145019531 49.15200042724608 L 268.6499938964844 49.069999694824205 L 268.72900390625 48.84799957275389 L 268.7860107421875 48.61899948120116 L 268.8210144042969 48.38600158691405 L 268.8320007324219 48.15000152587889 L 268.8210144042969 47.91500091552734 L 268.7860107421875 47.68199920654296 L 268.72900390625 47.45299911499023 L 268.6499938964844 47.230998992919915 L 268.58978271484375 47.10400009155273 L 268.54901123046875 47.01800155639648 L 268.4280090332031 46.81600189208984 L 268.2879943847656 46.62599945068359 L 268.1300048828125 46.45199966430663 L 267.9549865722656 46.29299926757812 L 267.7659912109375 46.15299987792968 L 267.5639953613281 46.03200149536132 L 267.35101318359375 45.93099975585937 L 267.1289978027344 45.851001739501946 L 266.9010009765625 45.79399871826171 L 266.6679992675781 45.7589988708496 L 266.4320068359375 45.748001098632805 L 266.239990234375 45.75698852539062 L 266.1969909667969 45.7589988708496 L 265.9639892578125 45.79399871826171 L 265.7359924316406 45.851001739501946 L 265.5140075683594 45.93099975585937 L 265.3009948730469 46.03200149536132 L 265.0989990234375 46.15299987792968 L 264.9100036621094 46.29299926757812 L 264.7349853515625 46.45199966430663 L 264.5769958496094 46.62599945068359 L 264.43701171875 46.81600189208984 L 264.3160095214844 47.01800155639648 L 264.27520751953125 47.10400009155273 L 264.2149963378906 47.230998992919915 L 264.135986328125 47.45299911499023 L 264.0780029296875 47.68199920654296 L 264.04400634765625 47.91500091552734 L 264.0320129394531 48.15000152587889 L 264.04400634765625 48.38600158691405 L 264.0780029296875 48.61899948120116 L 264.135986328125 48.84799957275389 L 264.2149963378906 49.069999694824205 L 264.2538757324219 49.15200042724608 L 264.3160095214844 49.28300094604491 L 264.43701171875 49.48500061035155 L 264.5769958496094 49.67399978637694 L 264.7349853515625 49.848999023437486 L 264.9100036621094 50.007999420166 L 265.0989990234375 50.14799880981444 L 265.3009948730469 50.269001007080064 L 265.5140075683594 50.36999893188475 L 265.7359924316406 50.449001312255845 L 265.9639892578125 50.50699996948241 L 266.1969909667969 50.54100036621092 L 266.239990234375 50.54319763183592 L 266.4320068359375 50.55300140380858 L 266.6679992675781 50.54100036621092 M 158.7899932861328 -90.09500122070311 L 158.7779998779297 -89.84500122070311 L 158.7899932861328 -89.59500122070311 L 158.82699584960938 -89.3470001220703 L 158.88699340820312 -89.10399627685545 L 158.9720001220703 -88.8679962158203 L 159.07899475097656 -88.64199829101561 L 159.20799255371094 -88.42700195312499 L 159.35699462890625 -88.22599792480467 L 159.52499389648438 -88.04000091552733 L 159.71099853515625 -87.8720016479492 L 159.74400329589844 -87.84753417968749 L 159.91200256347656 -87.72299957275389 L 160.1269989013672 -87.59400177001952 L 160.35299682617188 -87.48699951171874 L 160.58900451660156 -87.40200042724608 L 160.83200073242188 -87.34200286865233 L 161.0800018310547 -87.30500030517577 L 161.3300018310547 -87.29199981689452 L 161.5800018310547 -87.30500030517577 L 161.79200744628906 -87.33663177490233 L 161.8280029296875 -87.34200286865233 L 162.0709991455078 -87.40200042724608 L 162.3070068359375 -87.48699951171874 L 162.5330047607422 -87.59400177001952 L 162.7480010986328 -87.72299957275389 L 162.94900512695312 -87.8720016479492 L 163.13499450683594 -88.04000091552733 L 163.30299377441406 -88.22599792480467 L 163.45199584960938 -88.42700195312499 L 163.58099365234375 -88.64199829101561 L 163.68800354003906 -88.8679962158203 L 163.7729949951172 -89.10399627685545 L 163.83299255371094 -89.3470001220703 L 163.83999633789062 -89.39392089843749 L 163.8699951171875 -89.59500122070311 L 163.88299560546875 -89.84500122070311 L 163.8699951171875 -90.09500122070311 L 163.86746215820312 -90.11199951171874 L 163.83999633789062 -90.29608154296874 L 163.83299255371094 -90.34300231933592 L 163.7729949951172 -90.58599853515624 L 163.68800354003906 -90.82199859619139 L 163.58099365234375 -91.04799652099608 L 163.45199584960938 -91.26300048828124 L 163.30299377441406 -91.46399688720702 L 163.13499450683594 -91.65000152587889 L 162.94900512695312 -91.81800079345702 L 162.7480010986328 -91.96700286865233 L 162.5330047607422 -92.0960006713867 L 162.3070068359375 -92.20300292968749 L 162.0709991455078 -92.28800201416014 L 161.8280029296875 -92.34799957275389 L 161.79200744628906 -92.35337066650389 L 161.5800018310547 -92.38500213623045 L 161.3300018310547 -92.39700317382811 L 161.0800018310547 -92.38500213623045 L 160.83200073242188 -92.34799957275389 L 160.58900451660156 -92.28800201416014 L 160.35299682617188 -92.20300292968749 L 160.1269989013672 -92.0960006713867 L 159.91200256347656 -91.96700286865233 L 159.74400329589844 -91.8424606323242 L 159.71099853515625 -91.81800079345702 L 159.52499389648438 -91.65000152587889 L 159.35699462890625 -91.46399688720702 L 159.20799255371094 -91.26300048828124 L 159.07899475097656 -91.04799652099608 L 158.9720001220703 -90.82199859619139 L 158.88699340820312 -90.58599853515624 L 158.82699584960938 -90.34300231933592 L 158.79254150390625 -90.11199951171874 L 158.7899932861328 -90.09500122070311 M 158.7899932861328 -23.59499931335449 L 158.7779998779297 -23.34499931335449 L 158.7899932861328 -23.09499931335449 L 158.82699584960938 -22.84700012207031 L 158.88699340820312 -22.60400009155273 L 158.91436767578125 -22.527999877929684 L 158.9720001220703 -22.368000030517575 L 159.07899475097656 -22.142000198364254 L 159.20799255371094 -21.927000045776364 L 159.35699462890625 -21.725999832153317 L 159.52499389648438 -21.54000091552734 L 159.71099853515625 -21.371999740600582 L 159.74400329589844 -21.347537994384762 L 159.91200256347656 -21.222999572753903 L 160.1269989013672 -21.093999862670895 L 160.35299682617188 -20.986999511718746 L 160.58900451660156 -20.90200042724609 L 160.83200073242188 -20.841999053955075 L 161.0800018310547 -20.805000305175778 L 161.3300018310547 -20.791999816894528 L 161.5800018310547 -20.805000305175778 L 161.79200744628906 -20.836629867553707 L 161.8280029296875 -20.841999053955075 L 162.0709991455078 -20.90200042724609 L 162.3070068359375 -20.986999511718746 L 162.5330047607422 -21.093999862670895 L 162.7480010986328 -21.222999572753903 L 162.94900512695312 -21.371999740600582 L 163.13499450683594 -21.54000091552734 L 163.30299377441406 -21.725999832153317 L 163.45199584960938 -21.927000045776364 L 163.58099365234375 -22.142000198364254 L 163.68800354003906 -22.368000030517575 L 163.74562072753906 -22.527999877929684 L 163.7729949951172 -22.60400009155273 L 163.83299255371094 -22.84700012207031 L 163.83999633789062 -22.893918991088864 L 163.8699951171875 -23.09499931335449 L 163.88299560546875 -23.34499931335449 L 163.8699951171875 -23.59499931335449 L 163.83999633789062 -23.796081542968746 L 163.83299255371094 -23.8430004119873 L 163.7729949951172 -24.086000442504876 L 163.68800354003906 -24.322000503540032 L 163.58099365234375 -24.548000335693352 L 163.56419372558594 -24.57600021362304 L 163.45199584960938 -24.763000488281243 L 163.30299377441406 -24.96400070190429 L 163.13499450683594 -25.149999618530266 L 162.94900512695312 -25.318000793457024 L 162.7480010986328 -25.46699905395507 L 162.5330047607422 -25.59600067138671 L 162.3070068359375 -25.702999114990227 L 162.0709991455078 -25.788000106811516 L 161.8280029296875 -25.8479995727539 L 161.79200744628906 -25.8533706665039 L 161.5800018310547 -25.88500022888183 L 161.3300018310547 -25.896999359130852 L 161.0800018310547 -25.88500022888183 L 160.83200073242188 -25.8479995727539 L 160.58900451660156 -25.788000106811516 L 160.35299682617188 -25.702999114990227 L 160.1269989013672 -25.59600067138671 L 159.91200256347656 -25.46699905395507 L 159.74400329589844 -25.342462539672844 L 159.71099853515625 -25.318000793457024 L 159.52499389648438 -25.149999618530266 L 159.35699462890625 -24.96400070190429 L 159.20799255371094 -24.763000488281243 L 159.09579467773438 -24.57600021362304 L 159.07899475097656 -24.548000335693352 L 158.9720001220703 -24.322000503540032 L 158.88699340820312 -24.086000442504876 L 158.82699584960938 -23.8430004119873 L 158.7899932861328 -23.59499931335449 M 161.5800018310547 49.194999694824205 L 161.8280029296875 49.15800094604491 L 161.852294921875 49.15200042724608 L 162.0709991455078 49.09799957275389 L 162.3070068359375 49.013000488281236 L 162.5330047607422 48.905998229980455 L 162.7480010986328 48.77700042724608 L 162.94900512695312 48.62799835205077 L 163.13499450683594 48.45999908447264 L 163.30299377441406 48.27399826049803 L 163.45199584960938 48.07300186157225 L 163.58099365234375 47.85800170898437 L 163.68800354003906 47.631999969482415 L 163.7729949951172 47.39599990844726 L 163.83299255371094 47.15299987792968 L 163.83999633789062 47.10608291625976 L 163.8699951171875 46.90499877929687 L 163.88299560546875 46.65499877929687 L 163.8699951171875 46.40499877929687 L 163.83999633789062 46.20391845703124 L 163.83299255371094 46.15700149536132 L 163.7729949951172 45.91400146484374 L 163.68800354003906 45.67800140380859 L 163.58099365234375 45.45199966430663 L 163.45199584960938 45.23699951171874 L 163.3178253173828 45.05599975585937 L 163.30299377441406 45.035999298095696 L 163.13499450683594 44.84999847412109 L 162.94900512695312 44.68199920654296 L 162.7480010986328 44.533000946044915 L 162.5330047607422 44.403999328613274 L 162.3070068359375 44.29700088500976 L 162.0709991455078 44.2120018005371 L 161.8280029296875 44.15200042724609 L 161.79200744628906 44.14662933349609 L 161.5800018310547 44.11500167846679 L 161.3300018310547 44.10300064086913 L 161.0800018310547 44.11500167846679 L 160.83200073242188 44.15200042724609 L 160.58900451660156 44.2120018005371 L 160.35299682617188 44.29700088500976 L 160.1269989013672 44.403999328613274 L 159.91200256347656 44.533000946044915 L 159.74400329589844 44.65753555297851 L 159.71099853515625 44.68199920654296 L 159.52499389648438 44.84999847412109 L 159.35699462890625 45.035999298095696 L 159.34217834472656 45.05599975585937 L 159.20799255371094 45.23699951171874 L 159.07899475097656 45.45199966430663 L 158.9720001220703 45.67800140380859 L 158.88699340820312 45.91400146484374 L 158.82699584960938 46.15700149536132 L 158.7899932861328 46.40499877929687 L 158.7779998779297 46.65499877929687 L 158.7899932861328 46.90499877929687 L 158.81968688964844 47.10400009155273 L 158.82699584960938 47.15299987792968 L 158.88699340820312 47.39599990844726 L 158.9720001220703 47.631999969482415 L 159.07899475097656 47.85800170898437 L 159.20799255371094 48.07300186157225 L 159.35699462890625 48.27399826049803 L 159.52499389648438 48.45999908447264 L 159.71099853515625 48.62799835205077 L 159.74400329589844 48.65246200561522 L 159.91200256347656 48.77700042724608 L 160.1269989013672 48.905998229980455 L 160.35299682617188 49.013000488281236 L 160.58900451660156 49.09799957275389 L 160.8076934814453 49.15200042724608 L 160.83200073242188 49.15800094604491 L 161.0800018310547 49.194999694824205 L 161.3300018310547 49.208000183105455 L 161.5800018310547 49.194999694824205 M 196.43899536132812 47.91500091552734 L 196.427001953125 48.15000152587889 L 196.43899536132812 48.38600158691405 L 196.4739990234375 48.61899948120116 L 196.531005859375 48.84799957275389 L 196.60800170898438 49.06438064575194 L 196.61000061035156 49.069999694824205 L 196.6488800048828 49.15200042724608 L 196.67543029785156 49.208000183105455 L 196.71099853515625 49.28300094604491 L 196.83200073242188 49.48500061035155 L 196.9720001220703 49.67399978637694 L 197.1300048828125 49.848999023437486 L 197.30499267578125 50.007999420166 L 197.49400329589844 50.14799880981444 L 197.6959991455078 50.269001007080064 L 197.90899658203125 50.36999893188475 L 198.13099670410156 50.449001312255845 L 198.35899353027344 50.50699996948241 L 198.5919952392578 50.54100036621092 L 198.656005859375 50.5442543029785 L 198.8280029296875 50.55300140380858 L 199.06300354003906 50.54100036621092 L 199.29600524902344 50.50699996948241 L 199.5240020751953 50.449001312255845 L 199.74600219726562 50.36999893188475 L 199.95899963378906 50.269001007080064 L 200.16099548339844 50.14799880981444 L 200.35000610351562 50.007999420166 L 200.52499389648438 49.848999023437486 L 200.68299865722656 49.67399978637694 L 200.70399475097656 49.645648956298814 L 200.822998046875 49.48500061035155 L 200.94400024414062 49.28300094604491 L 200.9795684814453 49.208000183105455 L 201.00611877441406 49.15200042724608 L 201.0449981689453 49.069999694824205 L 201.12399291992188 48.84799957275389 L 201.1820068359375 48.61899948120116 L 201.21600341796875 48.38600158691405 L 201.22799682617188 48.15000152587889 L 201.21600341796875 47.91500091552734 L 201.1820068359375 47.68199920654296 L 201.12399291992188 47.45299911499023 L 201.0449981689453 47.230998992919915 L 200.94400024414062 47.01800155639648 L 200.822998046875 46.81600189208984 L 200.70399475097656 46.65449905395507 L 200.68299865722656 46.62599945068359 L 200.52499389648438 46.45199966430663 L 200.35000610351562 46.29299926757812 L 200.16099548339844 46.15299987792968 L 199.95899963378906 46.03200149536132 L 199.74600219726562 45.93099975585937 L 199.5240020751953 45.851001739501946 L 199.29600524902344 45.79399871826171 L 199.06300354003906 45.7589988708496 L 198.8280029296875 45.748001098632805 L 198.656005859375 45.75601577758788 L 198.5919952392578 45.7589988708496 L 198.35899353027344 45.79399871826171 L 198.13099670410156 45.851001739501946 L 197.90899658203125 45.93099975585937 L 197.6959991455078 46.03200149536132 L 197.49400329589844 46.15299987792968 L 197.30499267578125 46.29299926757812 L 197.1300048828125 46.45199966430663 L 196.9720001220703 46.62599945068359 L 196.83200073242188 46.81600189208984 L 196.71099853515625 47.01800155639648 L 196.61000061035156 47.230998992919915 L 196.60800170898438 47.236621856689446 L 196.531005859375 47.45299911499023 L 196.4739990234375 47.68199920654296 L 196.43899536132812 47.91500091552734 z" fill="none" stroke="rgb(255,0,0)" stroke-width="0.001mm" />
</svg>